<svg width="83" height="27" viewBox="0 0 83 27" fill="none" xmlns="http://www.w3.org/2000/svg">
<path fill-rule="evenodd" clip-rule="evenodd" d="M32.3701 0.0248898L32.3406 0.213436C32.3244 0.317137 32.2355 0.879241 32.1429 1.46256C32.0504 2.04587 31.9283 2.82009 31.8715 3.18304C31.8148 3.54599 31.6726 4.44748 31.5556 5.18635C31.2978 6.81383 31.0318 8.49996 30.942 9.07512C30.9055 9.30844 30.8603 9.55238 30.8415 9.61719C30.8226 9.682 30.8057 7.54464 30.8039 4.86752L30.8006 8.3604e-07L28.1468 0.0248889L28.0963 0.307709C27.198 5.33832 26.0781 11.6375 26.0781 11.6606C26.0781 11.6774 26.0575 11.6912 26.0323 11.6912C25.9993 11.6912 25.9903 10.0654 26.0001 5.85804L26.0137 0.0248889L23.4054 0L23.3839 0.106718C23.3721 0.165403 23.3445 0.383127 23.3225 0.590528C23.3005 0.797929 23.2525 1.22216 23.2158 1.53326C23.1791 1.84436 23.1031 2.50192 23.0468 2.99449C22.9363 3.96127 22.7819 5.30721 22.652 6.43547C22.6072 6.82434 22.5125 7.65159 22.4416 8.27379C22.3706 8.896 22.2761 9.71264 22.2315 10.0886C22.1868 10.4645 22.149 10.8039 22.1474 10.8427C22.1455 10.8888 22.1328 10.8806 22.1111 10.8192C22.0927 10.7673 22.0651 10.4492 22.0497 10.1121C22.0343 9.7751 21.9943 8.99027 21.9608 8.36807C21.8939 7.12635 21.6217 1.7803 21.5853 0.99119C21.5727 0.718976 21.5521 0.384588 21.5395 0.248128L21.5167 0L18.912 0.0248889L18.8826 0.260572C18.8664 0.390198 18.8045 0.994725 18.745 1.60397C18.6579 2.49456 18.5515 3.51484 18.5073 3.88264C18.4791 4.11705 18.4462 3.21924 18.4384 2.00463C18.4333 1.20095 18.4175 0.421449 18.4034 0.272356L18.3777 0.00132094L17.09 0.00132011C16.3612 0.00132008 15.7921 0.0199395 15.7788 0.0442148C15.749 0.0985633 15.7 0.376716 15.3377 2.5467C15.049 4.27581 14.9124 5.08613 14.5238 7.3782C14.4183 8.0004 14.247 9.01855 14.1432 9.64075C14.0394 10.263 13.9413 10.8251 13.9252 10.8899C13.909 10.9547 13.8865 8.53658 13.875 5.5163L13.8541 0.0248889L11.244 0L11.2232 0.106717C11.2117 0.165402 11.1356 0.764933 11.054 1.43899C10.9724 2.11304 10.8491 3.12059 10.7799 3.67798C10.7108 4.23537 10.6335 4.86638 10.6082 5.08029C10.583 5.2942 10.546 5.46917 10.5261 5.46917C10.5061 5.46917 10.4898 4.24611 10.4898 2.73524V0.00132011H9.1734C8.44936 0.00132008 7.85697 0.00895649 7.85697 0.0182424C7.85697 0.045723 7.49288 2.70715 7.31443 3.98436C7.22386 4.63249 7.0834 5.64004 7.00232 6.22335C6.92125 6.80667 6.84059 7.36877 6.82308 7.47247C6.80557 7.57617 6.78187 5.94289 6.77038 3.84295L6.74949 0.0248881L5.4226 0.0124436C4.50356 0.00381758 4.09571 0.0154606 4.09571 0.0502945C4.09571 0.0779637 4.04953 0.401698 3.99311 0.769788C3.9367 1.13783 3.80392 2.0117 3.69815 2.71167C3.59233 3.41165 3.45057 4.34496 3.38312 4.78569C3.31567 5.22641 3.13709 6.40365 2.98631 7.40177C2.83553 8.39988 2.69436 9.2367 2.67258 9.26131C2.64767 9.28949 2.633 7.58131 2.633 4.6537L2.63301 0.00132011H0.000547102L0 26.9662L1.293 26.9614C2.23105 26.9579 2.59644 26.9414 2.62402 26.9011C2.66723 26.8379 2.70221 26.63 3.05322 24.3474C3.19276 23.44 3.33494 22.5173 3.36921 22.2969C3.45028 21.7752 3.66864 20.346 3.88416 18.9267C3.97861 18.3045 4.07277 17.7424 4.09341 17.6775C4.11602 17.6065 4.1322 19.4151 4.1342 22.238L4.1375 26.9163H6.76131L6.78388 26.8103C6.79629 26.752 6.88389 26.1421 6.9785 25.4551C7.07316 24.7681 7.2061 23.8136 7.27393 23.3339C7.52723 21.5425 7.76878 19.8151 7.79633 19.5978C7.812 19.4743 7.84146 19.3617 7.86177 19.3476C7.88308 19.3327 7.89876 20.9297 7.89876 23.119V26.9163H9.19559C10.1953 26.9163 10.4967 26.9028 10.5111 26.8574C10.5213 26.825 10.6805 25.6 10.865 24.1353C11.0494 22.6705 11.2048 21.4508 11.2102 21.4249C11.2157 21.399 11.2298 22.6186 11.2416 24.1353L11.263 26.8928H13.8947L13.9704 26.445C14.0121 26.1987 14.1215 25.5517 14.2137 25.0073C14.3058 24.4629 14.398 23.9114 14.4185 23.7817C14.4648 23.4886 14.9537 20.5886 15.1494 19.4452C15.2294 18.9785 15.4368 17.7483 15.6104 16.7113C15.7841 15.6742 15.9416 14.7728 15.9604 14.7079C16.0072 14.5468 16.0404 15.5117 16.0697 17.8897C16.0828 18.9526 16.1109 20.8722 16.1321 22.1555C16.1533 23.4388 16.1747 24.8918 16.1797 25.3844C16.1847 25.877 16.1964 26.4235 16.2056 26.5988L16.2225 26.9176L18.8273 26.8928L18.8557 26.6099C18.8714 26.4544 18.9431 25.7438 19.0151 25.0309C19.1904 23.2936 19.4449 20.7582 19.6227 18.9773C19.7028 18.1756 19.7763 17.5106 19.7861 17.4995C19.8192 17.4622 19.8462 17.7903 19.892 18.7853C19.917 19.3297 19.9557 20.1039 19.9779 20.5057C20.0001 20.9076 20.0372 21.6076 20.0602 22.0613C20.0832 22.5149 20.1491 23.777 20.2064 24.8659C20.2639 25.9547 20.3108 26.8615 20.3108 26.881C20.3109 26.9004 20.9021 26.9163 21.6248 26.9163H22.9386L22.9627 26.716C23.001 26.3982 23.1809 24.8324 23.2593 24.1353C23.2987 23.7853 23.3466 23.4671 23.3659 23.4282C23.3853 23.3891 23.4015 24.1539 23.4022 25.1376L23.4035 26.9176L26.0529 26.8928L26.1921 26.0914C26.8756 22.1572 28.0927 15.3252 28.1235 15.25C28.1473 15.1918 28.1632 17.407 28.1649 21.0367L28.1677 26.9176L30.8197 26.8928L30.8737 26.5628C30.9034 26.3813 31.0967 25.1405 31.3032 23.8053C32.195 18.0402 32.3172 17.2745 32.3519 17.2321C32.3731 17.2064 32.3887 19.2525 32.3887 22.0478V26.9083L32.6708 26.9241C32.8259 26.9328 33.4136 26.9399 33.9768 26.9399H35.0007L35.0211 8.3604e-07L32.3701 0.0248898Z" fill="#1F88D4"/>
<path fill-rule="evenodd" clip-rule="evenodd" d="M32.3701 0.0248898L32.3406 0.213436C32.3244 0.317137 32.2355 0.879241 32.1429 1.46256C32.0504 2.04587 31.9283 2.82009 31.8715 3.18304C31.8148 3.54599 31.6726 4.44748 31.5556 5.18635C31.2978 6.81383 31.0318 8.49996 30.942 9.07512C30.9055 9.30844 30.8603 9.55238 30.8415 9.61719C30.8226 9.682 30.8057 7.54464 30.8039 4.86752L30.8006 8.3604e-07L28.1468 0.0248889L28.0963 0.307709C27.198 5.33832 26.0781 11.6375 26.0781 11.6606C26.0781 11.6774 26.0575 11.6912 26.0323 11.6912C25.9993 11.6912 25.9903 10.0654 26.0001 5.85804L26.0137 0.0248889L23.4054 0L23.3839 0.106718C23.3721 0.165403 23.3445 0.383127 23.3225 0.590528C23.3005 0.797929 23.2525 1.22216 23.2158 1.53326C23.1791 1.84436 23.1031 2.50192 23.0468 2.99449C22.9363 3.96127 22.7819 5.30721 22.652 6.43547C22.6072 6.82434 22.5125 7.65159 22.4416 8.27379C22.3706 8.896 22.2761 9.71264 22.2315 10.0886C22.1868 10.4645 22.149 10.8039 22.1474 10.8427C22.1455 10.8888 22.1328 10.8806 22.1111 10.8192C22.0927 10.7673 22.0651 10.4492 22.0497 10.1121C22.0343 9.7751 21.9943 8.99027 21.9608 8.36807C21.8939 7.12635 21.6217 1.7803 21.5853 0.99119C21.5727 0.718976 21.5521 0.384588 21.5395 0.248128L21.5167 0L18.912 0.0248889L18.8826 0.260572C18.8664 0.390198 18.8045 0.994725 18.745 1.60397C18.6579 2.49456 18.5515 3.51484 18.5073 3.88264C18.4791 4.11705 18.4462 3.21924 18.4384 2.00463C18.4333 1.20095 18.4175 0.421449 18.4034 0.272356L18.3777 0.00132094L17.09 0.00132011C16.3612 0.00132008 15.7921 0.0199395 15.7788 0.0442148C15.749 0.0985633 15.7 0.376716 15.3377 2.5467C15.049 4.27581 14.9124 5.08613 14.5238 7.3782C14.4183 8.0004 14.247 9.01855 14.1432 9.64075C14.0394 10.263 13.9413 10.8251 13.9252 10.8899C13.909 10.9547 13.8865 8.53658 13.875 5.5163L13.8541 0.0248889L11.244 0L11.2232 0.106717C11.2117 0.165402 11.1356 0.764933 11.054 1.43899C10.9724 2.11304 10.8491 3.12059 10.7799 3.67798C10.7108 4.23537 10.6335 4.86638 10.6082 5.08029C10.583 5.2942 10.546 5.46917 10.5261 5.46917C10.5061 5.46917 10.4898 4.24611 10.4898 2.73524V0.00132011H9.1734C8.44936 0.00132008 7.85697 0.00895649 7.85697 0.0182424C7.85697 0.045723 7.49288 2.70715 7.31443 3.98436C7.22386 4.63249 7.0834 5.64004 7.00232 6.22335C6.92125 6.80667 6.84059 7.36877 6.82308 7.47247C6.80557 7.57617 6.78187 5.94289 6.77038 3.84295L6.74949 0.0248881L5.4226 0.0124436C4.50356 0.00381758 4.09571 0.0154606 4.09571 0.0502945C4.09571 0.0779637 4.04953 0.401698 3.99311 0.769788C3.9367 1.13783 3.80392 2.0117 3.69815 2.71167C3.59233 3.41165 3.45057 4.34496 3.38312 4.78569C3.31567 5.22641 3.13709 6.40365 2.98631 7.40177C2.83553 8.39988 2.69436 9.2367 2.67258 9.26131C2.64767 9.28949 2.633 7.58131 2.633 4.6537L2.63301 0.00132011H0.000547102L0 26.9662L1.293 26.9614C2.23105 26.9579 2.59644 26.9414 2.62402 26.9011C2.66723 26.8379 2.70221 26.63 3.05322 24.3474C3.19276 23.44 3.33494 22.5173 3.36921 22.2969C3.45028 21.7752 3.66864 20.346 3.88416 18.9267C3.97861 18.3045 4.07277 17.7424 4.09341 17.6775C4.11602 17.6065 4.1322 19.4151 4.1342 22.238L4.1375 26.9163H6.76131L6.78388 26.8103C6.79629 26.752 6.88389 26.1421 6.9785 25.4551C7.07316 24.7681 7.2061 23.8136 7.27393 23.3339C7.52723 21.5425 7.76878 19.8151 7.79633 19.5978C7.812 19.4743 7.84146 19.3617 7.86177 19.3476C7.88308 19.3327 7.89876 20.9297 7.89876 23.119V26.9163H9.19559C10.1953 26.9163 10.4967 26.9028 10.5111 26.8574C10.5213 26.825 10.6805 25.6 10.865 24.1353C11.0494 22.6705 11.2048 21.4508 11.2102 21.4249C11.2157 21.399 11.2298 22.6186 11.2416 24.1353L11.263 26.8928H13.8947L13.9704 26.445C14.0121 26.1987 14.1215 25.5517 14.2137 25.0073C14.3058 24.4629 14.398 23.9114 14.4185 23.7817C14.4648 23.4886 14.9537 20.5886 15.1494 19.4452C15.2294 18.9785 15.4368 17.7483 15.6104 16.7113C15.7841 15.6742 15.9416 14.7728 15.9604 14.7079C16.0072 14.5468 16.0404 15.5117 16.0697 17.8897C16.0828 18.9526 16.1109 20.8722 16.1321 22.1555C16.1533 23.4388 16.1747 24.8918 16.1797 25.3844C16.1847 25.877 16.1964 26.4235 16.2056 26.5988L16.2225 26.9176L18.8273 26.8928L18.8557 26.6099C18.8714 26.4544 18.9431 25.7438 19.0151 25.0309C19.1904 23.2936 19.4449 20.7582 19.6227 18.9773C19.7028 18.1756 19.7763 17.5106 19.7861 17.4995C19.8192 17.4622 19.8462 17.7903 19.892 18.7853C19.917 19.3297 19.9557 20.1039 19.9779 20.5057C20.0001 20.9076 20.0372 21.6076 20.0602 22.0613C20.0832 22.5149 20.1491 23.777 20.2064 24.8659C20.2639 25.9547 20.3108 26.8615 20.3108 26.881C20.3109 26.9004 20.9021 26.9163 21.6248 26.9163H22.9386L22.9627 26.716C23.001 26.3982 23.1809 24.8324 23.2593 24.1353C23.2987 23.7853 23.3466 23.4671 23.3659 23.4282C23.3853 23.3891 23.4015 24.1539 23.4022 25.1376L23.4035 26.9176L26.0529 26.8928L26.1921 26.0914C26.8756 22.1572 28.0927 15.3252 28.1235 15.25C28.1473 15.1918 28.1632 17.407 28.1649 21.0367L28.1677 26.9176L30.8197 26.8928L30.8737 26.5628C30.9034 26.3813 31.0967 25.1405 31.3032 23.8053C32.195 18.0402 32.3172 17.2745 32.3519 17.2321C32.3731 17.2064 32.3887 19.2525 32.3887 22.0478V26.9083L32.6708 26.9241C32.8259 26.9328 33.4136 26.9399 33.9768 26.9399H35.0007L35.0211 8.3604e-07L32.3701 0.0248898Z" fill="url(#paint0_linear_379_1291)"/>
<path d="M41.8159 25.5634C41.722 25.5634 41.675 25.5047 41.675 25.3873L41.7103 1.22676C41.7103 1.10936 41.7689 1.05066 41.8863 1.05066H45.7945C45.9119 1.05066 45.9706 1.10936 45.9706 1.22676L45.9354 21.2314H53.1885C53.3058 21.2314 53.3645 21.2901 53.3645 21.4075V25.3873C53.3645 25.5047 53.3058 25.5634 53.1885 25.5634H41.8159Z" fill="#282828"/>
<path d="M61.4601 25.9156C60.2161 25.9156 59.0659 25.5987 58.0096 24.9647C56.9534 24.3073 56.1083 23.4385 55.4746 22.3585C54.8643 21.2784 54.5591 20.0927 54.5591 18.8013L54.6296 1.19154C54.6296 1.09762 54.6765 1.05066 54.7704 1.05066H58.7138C58.8077 1.05066 58.8547 1.09762 58.8547 1.19154V18.8013C58.8547 19.5996 59.1011 20.2805 59.594 20.844C60.1104 21.3841 60.7325 21.6541 61.4601 21.6541C62.2113 21.6541 62.8333 21.3841 63.3262 20.844C63.8426 20.2805 64.1008 19.5996 64.1008 18.8013V1.19154C64.1008 1.09762 64.1478 1.05066 64.2417 1.05066H68.1851C68.279 1.05066 68.3259 1.09762 68.3259 1.19154L68.3963 18.8013C68.3963 20.1162 68.0795 21.3136 67.4457 22.3937C66.8354 23.4738 66.0021 24.3308 64.9458 24.9647C63.913 25.5987 62.7511 25.9156 61.4601 25.9156Z" fill="#282828"/>
<path d="M69.7412 25.5634C69.6473 25.5634 69.6121 25.5047 69.6355 25.3873L73.6494 12.814L69.706 1.19154C69.6825 1.09762 69.7177 1.05066 69.8116 1.05066H73.755C73.8724 1.05066 73.9428 1.09762 73.9663 1.19154L76.3253 9.57378L78.7195 1.19154C78.743 1.09762 78.8134 1.05066 78.9308 1.05066H82.839C82.9329 1.05066 82.9681 1.09762 82.9446 1.19154L79.0012 12.7788L82.9798 25.3873C83.0268 25.5047 82.9916 25.5634 82.8742 25.5634H78.9308C78.8369 25.5634 78.7665 25.5047 78.7195 25.3873L76.3253 16.3007L73.8959 25.3873C73.8724 25.5047 73.802 25.5634 73.6846 25.5634H69.7412Z" fill="#282828"/>
<defs>
<linearGradient id="paint0_linear_379_1291" x1="35.2688" y1="0.020256" x2="28.0346" y2="33.1999" gradientUnits="userSpaceOnUse">
<stop stop-color="#02DE7F"/>
<stop offset="1" stop-color="#2D5BFF"/>
</linearGradient>
</defs>
</svg>
