<svg width="17" height="15" viewBox="0 0 17 15" fill="none" xmlns="http://www.w3.org/2000/svg">
<path fill-rule="evenodd" clip-rule="evenodd" d="M9.2692 10.8047C9.89917 10.1748 9.453 9.09763 8.5621 9.09763H0.999999C0.447714 9.09763 0 8.64991 0 8.09763V6.7643C0 6.21201 0.447715 5.7643 1 5.7643H8.5621C9.453 5.7643 9.89917 4.68716 9.2692 4.05719L7.86193 2.64992C7.4714 2.25939 7.4714 1.62623 7.86193 1.2357L8.80474 0.292893C9.19526 -0.0976314 9.82843 -0.0976308 10.219 0.292894L16.6499 6.72386C17.0404 7.11438 17.0404 7.74755 16.6499 8.13807L10.219 14.569C9.82843 14.9596 9.19526 14.9596 8.80474 14.569L7.86193 13.6262C7.4714 13.2357 7.4714 12.6025 7.86193 12.212L9.2692 10.8047Z" fill="#2D5BFF"/>
</svg>
