<svg width="38" height="38" viewBox="0 0 38 38" fill="none" xmlns="http://www.w3.org/2000/svg">
<path fill-rule="evenodd" clip-rule="evenodd" d="M19.0001 37.3332C8.87486 37.3332 0.666748 29.1251 0.666748 18.9998C0.666748 8.87462 8.87486 0.666504 19.0001 0.666504C29.1253 0.666504 37.3334 8.87462 37.3334 18.9998C37.3334 29.1251 29.1253 37.3332 19.0001 37.3332ZM19.0001 33.9998C27.2844 33.9998 34.0001 27.2841 34.0001 18.9998C34.0001 10.7156 27.2844 3.99984 19.0001 3.99984C10.7158 3.99984 4.00008 10.7156 4.00008 18.9998C4.00008 27.2841 10.7158 33.9998 19.0001 33.9998ZM10.6667 19.6665C10.6667 20.2188 11.1145 20.6665 11.6667 20.6665H19.2288C20.1197 20.6665 20.5659 21.7436 19.936 22.3736L18.5287 23.7809C18.1382 24.1714 18.1382 24.8046 18.5287 25.1951L19.4715 26.1379C19.862 26.5284 20.4952 26.5284 20.8857 26.1379L27.3167 19.7069C27.7072 19.3164 27.7072 18.6833 27.3167 18.2927L20.8857 11.8618C20.4952 11.4712 19.862 11.4712 19.4715 11.8618L18.5287 12.8046C18.1382 13.1951 18.1382 13.8283 18.5287 14.2188L19.936 15.6261C20.5659 16.256 20.1198 17.3332 19.2288 17.3332H11.6667C11.1145 17.3332 10.6667 17.7809 10.6667 18.3332V19.6665Z" fill="#333333"/>
</svg>
