<svg width="38" height="38" viewBox="0 0 38 38" fill="none" xmlns="http://www.w3.org/2000/svg">
<path fill-rule="evenodd" clip-rule="evenodd" d="M19.0001 37.3332C8.87486 37.3332 0.666748 29.1251 0.666748 18.9998C0.666748 8.87462 8.87486 0.666504 19.0001 0.666504C29.1253 0.666504 37.3334 8.87462 37.3334 18.9998C37.3334 29.1251 29.1253 37.3332 19.0001 37.3332ZM19.0001 33.9998C27.2844 33.9998 34.0001 27.2841 34.0001 18.9998C34.0001 10.7156 27.2844 3.99984 19.0001 3.99984C10.7158 3.99984 4.00008 10.7156 4.00008 18.9998C4.00008 27.2841 10.7158 33.9998 19.0001 33.9998ZM27.3334 18.3332C27.3334 17.7809 26.8857 17.3332 26.3334 17.3332H18.7713C17.8804 17.3332 17.4342 16.256 18.0642 15.6261L19.4715 14.2188C19.862 13.8283 19.862 13.1951 19.4715 12.8046L18.5287 11.8618C18.1382 11.4712 17.505 11.4712 17.1145 11.8618L10.6835 18.2927C10.293 18.6833 10.293 19.3164 10.6835 19.7069L17.1145 26.1379C17.505 26.5284 18.1382 26.5284 18.5287 26.1379L19.4715 25.1951C19.862 24.8046 19.862 24.1714 19.4715 23.7809L18.0642 22.3736C17.4342 21.7436 17.8804 20.6665 18.7713 20.6665H26.3334C26.8857 20.6665 27.3334 20.2188 27.3334 19.6665V18.3332Z" fill="#333333"/>
</svg>
