<svg width="101" height="73" viewBox="0 0 101 73" fill="none" xmlns="http://www.w3.org/2000/svg">
<path fill-rule="evenodd" clip-rule="evenodd" d="M73.024 0.705777L52.4475 12.4099C51.0556 13.2072 49.3434 13.2072 47.9297 12.4099L27.3532 0.705777C26.6453 0.318036 25.8698 0 25.0943 0C24.3188 0 23.5433 0.318036 22.8354 0.705777L2.30467 12.3642C0.888756 13.1854 0 14.6906 0 16.3331V42.3858C0 44.0283 0.888756 45.5335 2.30467 46.3547L47.9297 72.2703C48.6376 72.682 49.4131 73 50.1886 73C50.9641 73 51.7396 72.682 52.4475 72.2942L98.0725 46.3787C99.5102 45.5575 100.377 44.0501 100.377 42.4076V16.3331C100.377 14.6906 99.4884 13.1854 98.0725 12.3642L77.5418 0.705777C76.8338 0.318036 76.0584 0 75.2829 0C74.5074 0 73.7319 0.318036 73.024 0.705777Z" fill="#FF0000"/>
<path fill-rule="evenodd" clip-rule="evenodd" d="M75.8535 2.28076V27.9458L98.0964 14.8279L75.8535 2.28076Z" fill="white"/>
</svg>
