<svg width="175" height="59" viewBox="0 0 175 59" fill="none" xmlns="http://www.w3.org/2000/svg">
<g clip-path="url(#clip0_318_1184)">
<path d="M26.0964 26.0979H15.3508V29.1666H26.0964V41.4488H9.21042L3.07007 35.3084V3.07007H15.3508V13.8157H26.0964V26.0979Z" fill="white"/>
<path d="M72.1492 41.4488H35.3071L29.1667 35.3084V13.8157H41.4474V29.1666H44.5176V13.8157H56.7983V29.1666H59.8685V13.8157H72.1492V41.4488Z" fill="white"/>
<path d="M87.4999 13.8157H75.2192V41.4472H87.4999V13.8157Z" fill="white"/>
<path d="M87.4999 3.07007H75.2192V10.7455H87.4999V3.07007Z" fill="white"/>
<path d="M113.596 26.0979H102.851V29.1666H113.596V41.4488H96.7104L90.5701 35.3084V3.07007H102.851V13.8157H113.596V26.0979Z" fill="white"/>
<path d="M141.228 26.0979H128.947V29.1666H141.228V41.4488H122.807L116.667 35.3084V19.9576L122.807 13.8157H141.228V26.0979Z" fill="white"/>
<path d="M171.93 41.4488H159.649V26.0979H156.579V41.4488H144.298V3.07007H156.579V13.8157H165.79L171.93 19.9576V41.4488Z" fill="white"/>
<path d="M167.325 10.7456H159.649V0H142.795L135.045 10.7456H121.272L116.667 15.3509V10.7456H105.921V0H72.1491V10.7456H24.6382L16.886 0H0V36.8421L21.4912 58.3333H42.9825V52.193L49.1228 58.3333H90.5702V52.193L96.7105 58.3333H116.667V52.193L122.807 58.3333H161.184L175 44.5175V18.4211L167.325 10.7456ZM26.0965 26.0965H15.3509V29.1667H26.0965V41.4474H9.21053L3.07018 35.307V3.07018H15.3509V13.8158H26.0965V26.0965ZM72.1491 41.4474H35.307L29.1667 35.307V13.8158H41.4474V29.1667H44.5175V13.8158H56.7982V29.1667H59.8684V13.8158H72.1491V41.4474ZM87.5 41.4474H75.2193V13.8158H87.5V41.4474ZM87.5 10.7456H75.2193V3.07018H87.5V10.7456ZM113.596 26.0965H102.851V29.1667H113.596V41.4474H96.7105L90.5702 35.307V3.07018H102.851V13.8158H113.596V26.0965ZM141.228 26.0965H128.947V29.1667H141.228V41.4474H122.807L116.667 35.307V19.9561L122.807 13.8158H141.228V26.0965ZM171.93 41.4474H159.649V26.0965H156.579V41.4474H144.298V3.07018H156.579V13.8158H165.789L171.93 19.9561V41.4474Z" fill="#9146FF"/>
</g>
<defs>
<clipPath id="clip0_318_1184">
<rect width="175" height="58.3333" fill="white"/>
</clipPath>
</defs>
</svg>
